Coordinates
version=1
nRows=8
nColumns=63
inDegrees=yes

Units are S.I. units (second, meters, Newtons, ...)
If the header above contains a line with 'inDegrees', this indicates whether rotational values are in degrees (yes) or radians (no).

endheader
time	pelvis_tilt	pelvis_list	pelvis_rotation	pelvis_tx	pelvis_ty	pelvis_tz	hip_flexion_r	hip_adduction_r	hip_rotation_r	knee_angle_r	knee_angle_r_beta	ankle_angle_r	subtalar_angle_r	mtp_angle_r	hip_flexion_l	hip_adduction_l	hip_rotation_l	knee_angle_l	knee_angle_l_beta	ankle_angle_l	subtalar_angle_l	mtp_angle_l	L5_S1_Flex_Ext	L5_S1_Lat_Bending	L5_S1_axial_rotation	L4_L5_Flex_Ext	L4_L5_Lat_Bending	L4_L5_axial_rotation	L3_L4_Flex_Ext	L3_L4_Lat_Bending	L3_L4_axial_rotation	L2_L3_Flex_Ext	L2_L3_Lat_Bending	L2_L3_axial_rotation	L1_L2_Flex_Ext	L1_L2_Lat_Bending	L1_L2_axial_rotation	L1_T12_Flex_Ext	L1_T12_Lat_Bending	L1_T12_axial_rotation	Abs_r3	Abs_r2	Abs_r1	Abs_t1	Abs_t2	neck_flexion	neck_bending	neck_rotation	arm_flex_r	arm_add_r	arm_rot_r	elbow_flex_r	pro_sup_r	wrist_flex_r	wrist_dev_r	arm_flex_l	arm_add_l	arm_rot_l	elbow_flex_l	pro_sup_l	wrist_flex_l	wrist_dev_l
      4.32000000	     -2.46023486	     -3.65115922	     92.20970372	      0.23042673	      0.74928221	      0.62016554	     -3.51429578	     -1.80271169	      2.12052072	      1.67388441	      0.02921479	     20.40529467	      0.61455313	      0.00000000	     -1.01554901	      1.58346688	     -6.01413943	      4.22567279	      0.07375190	     23.69483052	      4.77721202	      0.00000000	     -0.25646661	      0.16423047	     -0.50910925	     -0.47628413	      0.21842653	     -0.54092858	     -0.42134899	      0.39930997	     -0.54092858	     -0.29311568	      0.39930997	     -0.44547059	     -0.23815489	      0.33489877	     -0.41365127	     -0.14654502	      0.25439300	     -0.38183194	     -1.83191532	      1.85780792	     -2.83151292	      0.00000000	      0.00000000	     14.17795672	     -2.76298291	     12.71193913	     12.40319481	     -8.18621869	    168.46191858	      2.17020988	     15.09407300	     -5.22736067	     -9.53530978	      2.20886827	    -15.11795429	     60.49358062	     23.18124503	     71.44609475	     -7.70648564	     -1.16755901
      4.34000000	     -2.56198398	     -3.69042706	     92.28252511	      0.23043727	      0.74936234	      0.61939700	     -3.66796649	     -1.82810620	      5.40298986	      1.38497747	      0.02417242	     19.38621562	     -4.29174241	      0.00000000	     -1.06725471	      1.74260819	     -4.54077257	      4.07927990	      0.07119687	     23.38033528	      3.20270854	      0.00000000	     -0.24715624	      0.14406310	     -0.52280257	     -0.45899386	      0.19160393	     -0.55547773	     -0.40605299	      0.35027503	     -0.55547773	     -0.28247487	      0.35027503	     -0.45745225	     -0.22950929	      0.29377348	     -0.42477709	     -0.14122508	      0.22315375	     -0.39210193	     -1.76541233	      1.62967065	     -2.90767104	      0.00000000	      0.00000000	     14.06099044	     -2.64789613	     12.42152312	     12.31433778	     -8.03058201	    171.94649016	      1.87327647	     13.03656836	     -5.47185241	     -9.27703729	      2.34630726	    -15.20680785	     61.80194393	     22.92912948	     71.16200017	     -7.96487808	     -1.71879121
      4.36000000	     -2.59361387	     -3.62279004	     92.58355941	      0.23017000	      0.74956828	      0.61882073	     -3.86177033	     -1.82385007	      5.41102917	      1.31612026	      0.02297063	     19.39762998	     -4.74171056	      0.00000000	     -1.18201814	      1.77142316	     -3.69172118	      3.99801353	      0.06977850	     23.30975291	      2.81287143	      0.00000000	     -0.24942530	      0.13510027	     -0.57785758	     -0.46320773	      0.17968336	     -0.61397368	     -0.40978083	      0.32848279	     -0.61397368	     -0.28506818	      0.32848279	     -0.50562538	     -0.23161634	      0.27549647	     -0.46950928	     -0.14252162	      0.20927031	     -0.43339318	     -1.78161999	      1.52828125	     -3.21387049	      0.00000000	      0.00000000	     13.93604134	     -2.58798281	     12.25297522	     12.24598060	     -7.97010436	    171.86155967	      1.83116957	     13.31332246	     -5.56802061	     -9.31536063	      2.26679753	    -15.25053087	     61.99751428	     22.84510241	     70.34561745	     -7.97050136	     -1.89720508
      4.38000000	     -2.58224931	     -3.51873536	     92.75050627	      0.22999067	      0.74977913	      0.61825018	     -4.06703743	     -1.78929543	      5.43258129	      1.26369799	      0.02205569	     19.42338472	     -4.99264453	      0.00000000	     -1.34567039	      1.76024876	     -2.97132285	      3.91789080	      0.06838009	     23.20704904	      2.28664558	      0.00000000	     -0.25172710	      0.13551859	     -0.60971353	     -0.46748241	      0.18023973	     -0.64782063	     -0.41356246	      0.32949990	     -0.64782063	     -0.28769891	      0.32949990	     -0.53349934	     -0.23375379	      0.27634951	     -0.49539224	     -0.14383687	      0.20991830	     -0.45728515	     -1.79806153	      1.53301342	     -3.39104375	      0.00000000	      0.00000000	     13.85020733	     -2.53266096	     12.25254386	     12.17127834	     -7.98572144	    171.51441341	      1.84907164	     13.46008822	     -5.52410322	     -9.26359446	      2.17354948	    -15.22369025	     62.27724421	     22.71125002	     68.97602757	     -7.89671784	     -2.08522718
      4.40000000	     -2.52625998	     -3.43781584	     93.06527484	      0.22962973	      0.74998749	      0.61782353	     -4.19909773	     -1.72042277	      3.81402052	      1.32936863	      0.02320186	     19.95986249	     -3.02664879	      0.00000000	     -1.39646389	      1.65719712	     -2.81610930	      4.00849189	      0.06996138	     23.32426206	      2.62505117	      0.00000000	     -0.25080375	      0.14364214	     -0.66397149	     -0.46576764	      0.19104404	     -0.70546971	     -0.41204548	      0.34925150	     -0.70546971	     -0.28664360	      0.34925150	     -0.58097505	     -0.23289636	      0.29291505	     -0.53947683	     -0.14330926	      0.22250167	     -0.49797862	     -1.79146610	      1.62490860	     -3.69281023	      0.00000000	      0.00000000	     13.66654179	     -2.53504459	     12.34530115	     12.07010232	     -8.03536206	    169.78960468	      1.85884147	     14.73626601	     -5.26645873	     -9.19037617	      2.19629639	    -15.17123779	     63.12289338	     22.47771601	     67.24406812	     -7.78341866	     -2.45522446
      4.42000000	     -2.44529214	     -3.33620190	     93.11404239	      0.22948299	      0.75007374	      0.61725613	     -4.41237618	     -1.60134454	      5.37681352	      1.17590024	      0.02052333	     19.43193642	     -5.36135964	      0.00000000	     -1.59602983	      1.58476971	     -1.94561645	      3.87745979	      0.06767444	     23.11954209	      1.53551722	      0.00000000	     -0.25466264	      0.15503535	     -0.67376852	     -0.47293399	      0.20619702	     -0.71587905	     -0.41838525	      0.37695296	     -0.71587905	     -0.29105393	      0.37695296	     -0.58954745	     -0.23647973	      0.31614809	     -0.54743692	     -0.14551423	      0.24014976	     -0.50532639	     -1.81902978	      1.75379092	     -3.74729835	      0.00000000	      0.00000000	     13.58416108	     -2.67419152	     12.24076609	     12.06525508	     -8.09836963	    171.15482525	      1.85581634	     12.97576745	     -4.85089438	     -8.99236774	      2.04351095	    -15.14787417	     62.98170443	     22.58392564	     66.24258625	     -7.74465673	     -2.21252245
      4.44000000	     -2.29807906	     -3.25150079	     93.45399558	      0.22896275	      0.75021560	      0.61697747	     -4.53076484	     -1.44202332	      3.44783747	      1.23094661	      0.02148407	     19.92846452	     -3.00710101	      0.00000000	     -1.64269472	      1.38037844	     -1.94277928	      3.97701941	      0.06941208	     23.27977281	      2.11450351	      0.00000000	     -0.26254095	      0.17668472	     -0.73959721	     -0.48756480	      0.23499068	     -0.78582204	     -0.43132853	      0.42959123	     -0.78582204	     -0.30005805	      0.42959123	     -0.64714756	     -0.24379553	      0.36029549	     -0.60092273	     -0.15001590	      0.27368464	     -0.55469791	     -1.87530376	      1.99869292	     -4.11341780	      0.00000000	      0.00000000	     13.55380088	     -2.78119928	     12.44161425	     12.11683115	     -8.16914706	    169.51780582	      1.95343156	     14.86528288	     -4.69659731	     -9.07505918	      2.08600619	    -15.06244827	     63.57079840	     22.50686659	     65.01367253	     -7.93533659	     -2.21641620
      4.46000000	     -2.23961783	     -3.25930923	     93.37234457	      0.22898558	      0.75008839	      0.61663426	     -4.57884400	     -1.36356158	      5.31011001	      1.11069916	      0.01938536	     19.30984584	     -5.59275128	      0.00000000	     -1.70878111	      1.34526919	     -1.09091616	      3.88787003	      0.06785613	     23.03371407	      0.86916754	      0.00000000	     -0.25431116	      0.18546469	     -0.71429828	     -0.47228126	      0.24666803	     -0.75894192	     -0.41780781	      0.45093884	     -0.75894192	     -0.29065223	      0.45093884	     -0.62501100	     -0.23615335	      0.37819959	     -0.58036735	     -0.14531340	      0.28728480	     -0.53572371	     -1.81651920	      2.09801364	     -3.97271275	      0.00000000	      0.00000000	     13.50294759	     -2.77509111	     12.44868295	     12.06361724	     -8.20708699	    170.76743325	      1.88089914	     11.67059174	     -3.27867547	     -8.71953193	      2.09196274	    -15.00703719	     63.70239508	     22.42314287	     65.18081866	     -8.00482012	     -2.32755966
